<svg xmlns="http://www.w3.org/2000/svg" viewBox="0 0 1450 1829"><path fill="#FFF" d="M1147.751 160.994c3.86 11.57-2.79 20.03-13.04 24.72-13.12 6.96-26.31 13.73-39.4 20.74-5.57 2.98-11.12 6-16.8 8.76-.34.17-13.23 5.12-8 6.84 13.92 7.95 55.06 10.31 46.23 34.15-5.39 14.53-20.1 8.27-30.57 4.5-12.49-4.51-25.13-8.63-37.55-13.35-9.47-3.6-24.86-5.97-31.78-13.82-7.5-8.5-1.78-20.99 6.81-25.89 13.35-7.36 26.56-15 39.99-22.22 5.66-3.03 26.71-9.82 28.83-15.12-14.86-9.15-49.8-7.12-42.95-31.66.02-.06.04-.13.06-.19.01-.04.03-.08.04-.12.09-.3.22-.7.34-1.1.02-.04.03-.08.04-.11 5.01-13.93 19.53-7.98 29.82-4.09 11.36 4.28 22.88 8.15 34.34 12.3 10.6 3.84 26.11 6.71 33.59 15.66z"/><path d="M1379.171 1439.624c1.93 83.15 8.83 166.96-1.29 249.87-2.15 17.66-5.12 37.46-11.98 54-6.37 15.36-12.63 36.34-27.05 46.37-30.97 31.16-72.3 3.34-93.37-23.9-24.13-31.22-32.02-70.18-38.3-108.22-6.88-41.65-8.8-84.95-9.13-127.15-.66-85.55.85-171.02.02-256.59-.39-39.71-2.29-86.33-28.35-118.91-27.43-34.3-63.65-38.04-104.54-26.53-18.59 5.24-37.68 12.16-56.98 13.72-23.36 1.89-46.73 2.03-70.18 2.24-20.64.18-41.4-.73-61.92-2.97-9.49-1.04-19.03-2.83-28.62-2.67-10.7.18-21.49 4.73-32.28 5.94-41.48 4.68-84.43 6.24-126.18 6.4-19.89.08-40.06.56-59.52-4.22-8.79-1.2-17.5-3.47-25.47-7.43-11.3-5.61-13.01-1.05-23.38 4.53-17.65 9.51-31.54 4.21-49.09-1.37-8.52-2.71-15.3 4.27-23.29 6.23-9.72 2.39-21.58 2.27-30.46-2.48-10.67-5.72-11.36-3.38-22.12 1.41-8.87 3.94-18.58 6.01-28.29 5.9-9.16.08-17.27-4.91-24.54-9.91-10.4-6.89-12.11-14.45-25.29-10.71-39.86 11.31-81.34-8.37-95.41-47.68-6.8-19.03-7.26-41.79-3.06-61.39 2.27-10.59 6.32-14.78-2.67-22.04-9.39-7.59-18.66-15.21-27.2-23.76-56.36-56.37-88.06-130.79-86.89-210.72.14-9.78-.09-20.4 2.13-29.98 2.31-9.92.58-15.25-7.13-22.24-15.85-16.21-32-31.48-45.92-49.56-16.72-21.73-57.73-65.15-40.57-95.15 8.14-14.23 33.2-21.82 48.45-22.82 21.08-1.39 42.29-5.02 63.53-6.54 21.06-1.5 42.22-1.6 63.33-2.06 9.32-.2 18.66-.2 27.98-.43 4.92.38 17.92-16.24 22.07-19.61 62.14-50.6 137.68-87.78 216.19-104.39 20.46-4.33 41.19-7.03 61.93-9.56 9.23-1.12 18.52-1.23 27.77-2.07 8.54-.92 16.07-14.56 20.74-20.63 24.51-31.81 53.82-58.75 82.67-86.51 8.16-7.86 17.33-14.57 26.93-20.58 15.12-8.67 33.58-17.4 49.85-5.32 16.14 11.97 22.65 33.16 25.61 52.12 6.47 41.52 12.59 83.18 17.56 124.94 1.01 8.47-1.72 23.53 6.62 27.23 8.13 3.62 15.37 8.92 22.27 14.47 15.7 12.6 27.53 26.92 40.21 42.3 23.92 29.04 40.43 72.69 46.11 109.6 1.78 9.57 3.9 19.1 4.84 28.81 10.11-.53 20.17 1.18 29.97 3.53 21.25 4.17 41.19 11.63 60.68 20.85 35.27 16.69 67.5 41.9 90.87 73.37 23.87 32.14 41.82 69.89 50.26 109.14 3.88 21.12 6.88 42.25 8.61 63.66.8 9.91.77 19.86.87 29.79.09 9.09 17.68 15.15 25.25 20.04 68.34 44.11 120.81 107.63 137.84 188.28 9.31 44.08 14.89 88.33 20.18 133.04 4.98 42.08 8.15 85.94 9.13 128.32zm-37.1 186.76c1.85-13.28.61-27.37.6-40.74 0-5.94.78-43.23-3.74-42.84h-.01c-8.24 15.08-29.43 21.15-45.57 20.45-10.84-.33-20.51.04-31.05-3.02-8.61-2.5-21.46-12.71-30.02-12.18 4.34 12.17 3.27 26.28 3.93 39 .78 14.91 1.9 29.77 3.37 44.63 1.21 12.16 1.01 22.83 11.77 29.72 12.42 7.89 28.07 7.93 42.26 7.66 12.63-.24 25.63-2.15 37.08-7.75 5.98-2.92 11.31-4.03 11.3-11.07 0-7.95-.12-15.91.08-23.86zm-10.15-186.03c10.21-3.98 7.78-7.5 6.93-17.44-.71-8.35-.36-16.78-.75-25.15-.35-7.47.45-17.19-2.01-24.3-6.69-.34-14.57 4.04-20.94 5.84-14.24 4.01-30.51 4.71-45.17 2.49-7.71-1.16-14.22-4.39-20.75-8.5-4.75-2.98-10.05-11.47-15.47-12.47 3.69 14.06 3.21 30.66 2.86 45.11-.23 9.26-.63 18.52-.48 27.79.13 8.38 2.46 7.46 7.83 12.38 19.89 18.26 66.1 2.76 87.95-5.75zm-14.09-163.49c9.01-8.52 8.76-10.84 8.1-22.77-.57-10.15-2.04-20.24-4.04-30.2-.71-3.54-.88-9.28-3.3-12.2-2.38-2.87-10.8 3.47-13.65 4.05-24.8 4.94-47.9 6.08-73.11 7.26 1.07 9.81-1.56 55.54 6.62 57.85 17.55 4.95 34.66 10.98 52.97 6.19 9.08-2.38 18.38-5.05 26.41-10.18zm-32.65-158.71c5.8-5.46-26.59-47.93-34.73-47.02-1.1 22.41-23.65 39.4-40.65 51.46-10.37 7.35-14.89 8.16-7.36 19.42 3.58 5.37 6.57 11.1 9.62 16.79 1.31 3.23 11.52.37 13.64.05 22.59-3.34 45.08-24.07 59.48-40.7zm-110.34-91.21c3.63-8.11 8.02-12.92-.6-17.84-6.91-3.95-13.55-8.38-20.68-11.93-9.43-5.55-6.51-11.71-5.58-21.84.74-8.1 1.37-16.06 1.17-24.21-.27-10.89 2.59-18.19-9.41-19.63-13.91-1.67-32.38-5.09-43.7-13.8-15.26-14.1.05-21.44 11.6-27.83 6.78-3.76 12.43-10.11 18.31-15.1 9-7.65 12.13-8.87 7.87-20.69-3.38-9.43-3.4-9.29-11.92-6.11-9.42 3.94-18.9 7.78-28.64 10.84-9.66 3.04-32 10.32-35.94-4.28-3.43-12.65 14.86-28.39 20.23-38.8 5.09-9.88 18.65-30.26 10.68-39.7-3.34-3.96-6.24-8.88-11.63-9.69-5.44 7.25-11.55 13.15-18.29 19.15-11.67 10.39-23.81 21.68-38.99 26.63-21.4 6.99-15.59-13.25-9.24-25.31 8.06-15.31 9.59-33.85 11.15-50.83.3-3.28.58-6.55.85-9.82-4.82-1.58-9.52-3.5-14.22-5.39-7.53-3.04-16.46-7.75-24.8-6.81-3.12 25.03-10.08 54.17-28.08 72.99-5.13 5.4-19.23 21.22-25.36 8.3-5.71-12.04 1.37-28.13-.85-40.84-14.28 31.86-23.68 64.52-43.44 93.94-3.02 6.07 4.19 8.08 8.15 11.89 6.86 5.51 13 14.1 18.13 21.22 10.16 14.11 16.88 30.99 21.43 47.71 2.44 8.99 6.23 40.35-10.57 22.69-11.61-12.21-21.98-25.34-34.76-36.41-3.69-3.19-34.21-29.03-37.32-23.06-8.16 12.68-22.95 21.79-29.98 34.85 17.66 11.85 32.82 21.53 43.82 40.75 3.2 5.59 11.29 23.12 2.39 27.44-7.75 3.76-17.11-5.58-21.9-10.28-13.67-13.4-28.11-22.21-46.4-28.24-11.73-3.86-13.97.47-22.93 7.71-4.03 3.25-18.64 10.25-19.33 15.76 7.82 3.18 18.18 8.29 23.1 15.42 4.8 6.94 1.06 13.29-6.82 14.07-19.98 1.99-40.05 3.15-59.94 6.02-35.66 5.14-80.04 17.86-88.62 58.97-3.14 15.05-.8 36.68 20.39 34 19.09-2.41 18.17-34 35.51-37.96 13.06-2.98 20.08 23.92 26.06 31.62 14.04 18.05 31.74-.13 42.78-10.98 5.19-5.11 12.3-14.65 19.7-16.58 9.3-2.42 10.94 6.99 13.46 13.14 8.13 19.81 30.6 18.17 47.35 11.32 8.25-3.37 16.03-7.86 23.13-13.23 4.49-2.9 15.29-15.92 20.35-7.9 3.76 7.42 4.34 16 3.42 24.15 9.77 4.34 25.54 3.17 36.13 3.8 40.81 2.43 85.24 4.12 125.1-6.22 16.09-4.17 28.8-13.04 45.91-15.09 9.72-1.16 19.53-.8 29.3-.68 5.77.84 21.86 5.9 26.42.58 9.85-11.45 17.78-23.61 24.84-36.89 3.75-7.05 7.93-13.67 11.21-20.99zm-283.08-401.01c4.83-2.88 8.53-3.61 6.8-9.57-1.93-6.65-4.18-13.48-7.05-19.78-3.39-7.45-11.4 1.11-16.72 4.26-6.46 4.13-13.43 7.36-20.34 10.63-10.73 5.08-26.22 12.62-38.48 10.21-16.62-3.28-.27-27.06 4.27-34.17 7.89-12.34 17.01-23.85 26.75-34.77 3.9-4.38 12.52-9.81 8.45-15.71-3.71-5.37-9.03-10-13.83-14.37-10.63-9.69-23.25-17.87-36.2-24.08-6.97-3.35-11.76-2.64-11.9-11.02-.14-8.42-.48-16.8-1.43-25.17-3.69-32.26-8.26-64.44-11.79-96.71-1.73-15.78-6.3-87.77-35.07-61.47-29.45 27.92-56.99 58.14-85.13 87.38-13.81 14.34-28.29 28.1-41.36 43.14-7 6.76-12.41 4.69-21.66 4-9.18-.69-26.88-.57-34.91 4.55 19.34 15.9 35.53 41.96 40.54 66.46 5.42 18.79 1.4 64.07-27.95 45.29-22.42-14.35-37.62-41.62-55.26-61.12-9.67-10.68-19.42-21.28-29.41-31.65-8.39-8.7-25.3 1.12-35.54 4.83 3.16 8.26 11.7 15.95 16.78 23.28 5.03 7.52 9.54 14.96 13.56 23.08 9.68 19.51 12.46 39.09 12.88 60.64.14 7.41.33 50.74-18.52 37.32-16.24-9.4-25.2-31.64-36.67-45.88-12.64-15.68-26.78-30.85-41.7-44.38-6.2-5.62-12.64-14.55-20.27-18.18-5.01-2.39-21.33 11.78-25.57 14.67-1.78 1.21-18.46 12.16-15.7 13.77 7.49 6.2 15.61 11.61 22.99 17.97 15.71 12.93 32.9 28.12 42 46.64 6.68 13.59 15.36 39.73 3.95 53.27-13.74 12.39-32.64-15.26-39.87-23.94-11.63-13.97-27.34-26.09-42.11-36.6-8.02-5.71-15.92-11.67-24.25-16.95-12.23-7.76-9.94 3.18-21.56 3.42-10.57.22-21.29-1.89-31.98-1.86-11.04.02-22.08.28-33.12.61-21.72.65-43.34 2.23-65.04 3.2-8.86 1.64-49.13-.58-47.91 13.95.66 7.89 7.82 13.17 11.59 19.53 6.39 9.35 12.98 18.56 19.9 27.54 12.19 15.82 25.46 30.65 38.8 45.5 6.27 6.98 12.32 14.13 18.62 21.08 4.55 5.03 16.23 13.61 14.54 21.22-9.43 42.35-10.36 85.29 3.75 126.87 3.23 9.5 6.95 19.1 11.1 28.22 1.62 3.56 3.64 6.92 5.56 10.33 4.06 5.98 7.86 3.75 14.52 3 22.61-2.54 45.39-3.16 68.13-2.94 8.35.08 17.61-.74 24.76 4.5 7.01 5.49-5.24 13.84-9 16.68-16.24 13.94-36.4 22.08-53.34 34.87 4.23 6.82 28.86 32.73 36.76 25.22 12.57-11.93 27.52-21.37 42.92-29.29 7.06-3.63 15.81-8.55 24.06-6.07 7.02 3.38 3.6 15.99 2.8 21.65-1.4 10.02-5.37 20.17-9.03 29.55-1.62 4.18-3.55 8.23-4.91 12.51-2.2 6.91 3.08 6.02 8.68 7.99 78.17 27.49 167.02 22.46 246.32 3.02 74.08-18.17 139.1-57.79 192.47-111.67 54.65-55.19 99.98-129.33 100.13-209.44-14.2 1.25-28.57 1.93-42.83 1.53-9.92-.28-38.98.66-42.21-12.43-3.48-11.03 15.91-22.64 22.94-27.58 13.71-9.61 27.94-18 42.3-26.58zm-325.42 478.75c10.77-14.61 16.79-28.68 9.03-46.55-3.44-7.92-5.25-12.25-14.16-10.74-10.23 1.72-20.54 2.88-30.87 3.63-18.97 1.38-38 1.41-57 1.14-17.77-.56-35.64-1.63-53.09-5.14-7.97-1.6-15.9-3.45-23.89-4.96-11.69-2-13.36.17-23.09 6.69-6.79 4.56-13.34 11.14-21.38 13.4-11.85 3.33-10.4-8.37-10.35-16.36.03-6.53 4.81-19.53-1.82-23.24-3.43-1.92-15.57-9.17-19.41-6.22-8.66 8.92-8.96 34.89-8.03 46.3 1.36 16.49 10.83 30.69 27.23 35.4 16.08 4.61 36.33.76 51-6.59 4.96-2.2 10.59-6.44 13.8.06 2.79 7.46 8.49 15.41 14.66 20.36 15.55 12.48 26.79 1.99 37.53-10.65 5.77-6.8 30.11-27.94 30.23-5.89-.3 7.39-.62 12.6 5.34 17.98 6.89 6.22 18.06-2.54 24.53-5.74 5.53-2.28 12.82-42.72 26.47-19.92 2.59 6.96-3.1 16.99 3.45 21.52 9.59 6.61 13.39 4.24 19.82-4.48z"/><path fill="#FFF" d="M1342.671 1585.644c.01 13.37 1.25 27.46-.6 40.74-.2 7.95-.08 15.91-.08 23.86.01 7.04-5.32 8.15-11.3 11.07-11.45 5.6-24.45 7.51-37.08 7.75-14.19.27-29.84.23-42.26-7.66-10.76-6.89-10.56-17.56-11.77-29.72a965.062 965.062 0 01-3.37-44.63c-.66-12.72.41-26.83-3.93-39 8.56-.53 21.41 9.68 30.02 12.18 10.54 3.06 20.21 2.69 31.05 3.02 16.14.7 37.33-5.37 45.57-20.45-2.76 5.05.49 0 .01 0 4.52-.39 3.74 36.9 3.74 42.84z"/><path d="M1338.931 1542.804c.48 0-2.77 5.05-.01 0h.01z"/><path fill="#FFF" d="M1338.851 1422.914c.85 9.94 3.28 13.46-6.93 17.44-21.85 8.51-68.06 24.01-87.95 5.75-5.37-4.92-7.7-4-7.83-12.38-.15-9.27.25-18.53.48-27.79.35-14.45.83-31.05-2.86-45.11 5.42 1 10.72 9.49 15.47 12.47 6.53 4.11 13.04 7.34 20.75 8.5 14.66 2.22 30.93 1.52 45.17-2.49 6.37-1.8 14.25-6.18 20.94-5.84 2.46 7.11 1.66 16.83 2.01 24.3.39 8.37.04 16.8.75 25.15zM1325.931 1254.094c.66 11.93.91 14.25-8.1 22.77-8.03 5.13-17.33 7.8-26.41 10.18-18.31 4.79-35.42-1.24-52.97-6.19-8.18-2.31-5.55-48.04-6.62-57.85 25.21-1.18 48.31-2.32 73.11-7.26 2.85-.58 11.27-6.92 13.65-4.05 2.42 2.92 2.59 8.66 3.3 12.2 2 9.96 3.47 20.05 4.04 30.2zM1250.451 1071.134c8.14-.91 40.53 41.56 34.73 47.02-14.4 16.63-36.89 37.36-59.48 40.7-2.12.32-12.33 3.18-13.64-.05-3.05-5.69-6.04-11.42-9.62-16.79-7.53-11.26-3.01-12.07 7.36-19.42 17-12.06 39.55-29.05 40.65-51.46z"/><path d="M1050.251 136.304c-.07.23-.19.58-.35 1.1-.05.16-.11.32-.16.49-.15.5-.23.76-.25.84.01-.02.02-.05.03-.09-6.85 24.54 28.09 22.51 42.95 31.66-2.12 5.3-23.17 12.09-28.83 15.12-13.43 7.22-26.64 14.86-39.99 22.22-8.59 4.9-14.31 17.39-6.81 25.89 6.92 7.85 22.31 10.22 31.78 13.82 12.42 4.72 25.06 8.84 37.55 13.35 10.47 3.77 25.18 10.03 30.57-4.5 8.83-23.84-32.31-26.2-46.23-34.15-5.23-1.72 7.66-6.67 8-6.84 5.68-2.76 11.23-5.78 16.8-8.76 13.09-7.01 26.28-13.78 39.4-20.74 10.25-4.69 16.9-13.15 13.04-24.72-7.48-8.95-22.99-11.82-33.59-15.66-11.46-4.15-22.98-8.02-34.34-12.3-10.29-3.89-24.81-9.84-29.82 4.09.1-.31.19-.61.25-.82zm216.15.71c28.23 70.18 3.55 157.06-60.24 199.16-13.5 8.17-26.05 15.79-40.2 22.88-17.84 8.93-40.7 12.1-60.4 12.99-40.55 1.84-76.85-8.05-110.57-30.56-7.65-5.11-14.8-11.34-21.45-17.7-6.86-6.57-7.93-12.3-17.3-8.18-11.61 5.09-47.11 7.83-32.5-14.65 4.81-7.41 12.88-10.98 18.15-17.64-.56-7.38-6.87-16.05-9.22-23.18-6.81-20.6-9.76-41.12-10.54-62.78 2.27-22.15 5.44-40.57 12.8-61.55 8.12-23.15 24.2-40.88 39.65-59.24 26.63-31.34 72.79-46.17 112.09-50.97 20.23-.6 38.95-.17 58.64 4.79 19.83 5 37.06 13.51 54.24 24.26 31.14 19.5 53.27 48.61 66.85 82.37zm-113.81-101.6c.13 3.46 2.83-1.61 0 0z"/><path fill="#FFF" d="M1174.241 1009.104c8.62 4.92 4.23 9.73.6 17.84-3.28 7.32-7.46 13.94-11.21 20.99-7.06 13.28-14.99 25.44-24.84 36.89-4.56 5.32-20.65.26-26.42-.58-9.77-.12-19.58-.48-29.3.68-17.11 2.05-29.82 10.92-45.91 15.09-39.86 10.34-84.29 8.65-125.1 6.22-10.59-.63-26.36.54-36.13-3.8.92-8.15.34-16.73-3.42-24.15-5.06-8.02-15.86 5-20.35 7.9-7.1 5.37-14.88 9.86-23.13 13.23-16.75 6.85-39.22 8.49-47.35-11.32-2.52-6.15-4.16-15.56-13.46-13.14-7.4 1.93-14.51 11.47-19.7 16.58-11.04 10.85-28.74 29.03-42.78 10.98-5.98-7.7-13-34.6-26.06-31.62-17.34 3.96-16.42 35.55-35.51 37.96-21.19 2.68-23.53-18.95-20.39-34 8.58-41.11 52.96-53.83 88.62-58.97 19.89-2.87 39.96-4.03 59.94-6.02 7.88-.78 11.62-7.13 6.82-14.07-4.92-7.13-15.28-12.24-23.1-15.42.69-5.51 15.3-12.51 19.33-15.76 8.96-7.24 11.2-11.57 22.93-7.71 18.29 6.03 32.73 14.84 46.4 28.24 4.79 4.7 14.15 14.04 21.9 10.28 8.9-4.32.81-21.85-2.39-27.44-11-19.22-26.16-28.9-43.82-40.75 7.03-13.06 21.82-22.17 29.98-34.85 3.11-5.97 33.63 19.87 37.32 23.06 12.78 11.07 23.15 24.2 34.76 36.41 16.8 17.66 13.01-13.7 10.57-22.69-4.55-16.72-11.27-33.6-21.43-47.71-5.13-7.12-11.27-15.71-18.13-21.22-3.96-3.81-11.17-5.82-8.15-11.89 19.76-29.42 29.16-62.08 43.44-93.94 2.22 12.71-4.86 28.8.85 40.84 6.13 12.92 20.23-2.9 25.36-8.3 18-18.82 24.96-47.96 28.08-72.99 8.34-.94 17.27 3.77 24.8 6.81 4.7 1.89 9.4 3.81 14.22 5.39-.27 3.27-.55 6.54-.85 9.82-1.56 16.98-3.09 35.52-11.15 50.83-6.35 12.06-12.16 32.3 9.24 25.31 15.18-4.95 27.32-16.24 38.99-26.63 6.74-6 12.85-11.9 18.29-19.15 5.39.81 8.29 5.73 11.63 9.69 7.97 9.44-5.59 29.82-10.68 39.7-5.37 10.41-23.66 26.15-20.23 38.8 3.94 14.6 26.28 7.32 35.94 4.28 9.74-3.06 19.22-6.9 28.64-10.84 8.52-3.18 8.54-3.32 11.92 6.11 4.26 11.82 1.13 13.04-7.87 20.69-5.88 4.99-11.53 11.34-18.31 15.1-11.55 6.39-26.86 13.73-11.6 27.83 11.32 8.71 29.79 12.13 43.7 13.8 12 1.44 9.14 8.74 9.41 19.63.2 8.15-.43 16.11-1.17 24.21-.93 10.13-3.85 16.29 5.58 21.84 7.13 3.55 13.77 7.98 20.68 11.93z"/><path d="M1049.901 137.404c.02-.06.04-.12.06-.17-.12.4-.25.8-.34 1.1.03-.14.07-.29.12-.44.05-.17.11-.33.16-.49z"/><path fill="#FFF" d="M540.031 704.404c.26-.06 1.32-.36 3.71-1.03-15.71 4.61-63.69 25.73-25.21 36.61 8.33 2.36 16.02 2.57 24.61 2.65 2.99 5.09 5 10.69 6.54 16.37 1.17 4.32 2.11 9.17 2.51 14.12.58 7.32-.02 14.83-2.82 21.09-2.6 5.8-8.04 10.85-13.88 13.3-5.26 2.21-12.65-.78-16.27 3.96-9.21 12.06 6.79 13.46 15 11.31 12.98-3.4 21.96-10.91 27.95-22.7 4.38-8.01 1.67-18.02.97-27.17-.18-2.39-.23-4.73.03-6.95 6.02 1.15 11.71 7.59 17.24 10.33 5.34 2.25 11.19 3.17 16.97 2.91 11.94-.53 22.44-6.13 32.22-12.52 6-3.92 18.91-14.3 6.23-19.97-5.44-1.96-19.86 12.62-24.27 15.88-21.33 13.89-43.74-8.15-54.89-24.39-5.5-8.02 5.11-20.54 8.51-28.08 6.07-11.2-15.71-8.32-20.61-6.98.36-.11.58-.18.68-.22-.61.15-4.68 1.32-5.22 1.48zm195.06-320.84c.19-.12 1.51-1.08 4.84-3.59-16.52 12.51-32.02 26.46-47.97 39.65-5.11 4.23-19.18 9.25-7.31 14.08 8.81 3.58 18.26 5.64 27.37 8.28 10.79 3.13 22.07 7.88 33.14 9.71 9.26 1.54 3.73-13.37 2.91-18.55-1.9-12-3.41-24.16-4.7-36.25-.19-1.82.07-19.78-2.62-17.55.44-.51-5.33 3.9-5.66 4.22zm163.47 232.8c1.73 5.96-1.97 6.69-6.8 9.57-14.36 8.58-28.59 16.97-42.3 26.58-7.03 4.94-26.42 16.55-22.94 27.58 3.23 13.09 32.29 12.15 42.21 12.43 14.26.4 28.63-.28 42.83-1.53-.15 80.11-45.48 154.25-100.13 209.44-53.37 53.88-118.39 93.5-192.47 111.67-79.3 19.44-168.15 24.47-246.32-3.02-5.6-1.97-10.88-1.08-8.68-7.99 1.36-4.28 3.29-8.33 4.91-12.51 3.66-9.38 7.63-19.53 9.03-29.55.8-5.66 4.22-18.27-2.8-21.65-8.25-2.48-17 2.44-24.06 6.07-15.4 7.92-30.35 17.36-42.92 29.29-7.9 7.51-32.53-18.4-36.76-25.22 16.94-12.79 37.1-20.93 53.34-34.87 3.76-2.84 16.01-11.19 9-16.68-7.15-5.24-16.41-4.42-24.76-4.5-22.74-.22-45.52.4-68.13 2.94-6.66.75-10.46 2.98-14.52-3-1.92-3.41-3.94-6.77-5.56-10.33-4.15-9.12-7.87-18.72-11.1-28.22-14.11-41.58-13.18-84.52-3.75-126.87 1.69-7.61-9.99-16.19-14.54-21.22-6.3-6.95-12.35-14.1-18.62-21.08-13.34-14.85-26.61-29.68-38.8-45.5-6.92-8.98-13.51-18.19-19.9-27.54-3.77-6.36-10.93-11.64-11.59-19.53-1.22-14.53 39.05-12.31 47.91-13.95 21.7-.97 43.32-2.55 65.04-3.2 11.04-.33 22.08-.59 33.12-.61 10.69-.03 21.41 2.08 31.98 1.86 11.62-.24 9.33-11.18 21.56-3.42 8.33 5.28 16.23 11.24 24.25 16.95 14.77 10.51 30.48 22.63 42.11 36.6 7.23 8.68 26.13 36.33 39.87 23.94 11.41-13.54 2.73-39.68-3.95-53.27-9.1-18.52-26.29-33.71-42-46.64-7.38-6.36-15.5-11.77-22.99-17.97-2.76-1.61 13.92-12.56 15.7-13.77 4.24-2.89 20.56-17.06 25.57-14.67 7.63 3.63 14.07 12.56 20.27 18.18 14.92 13.53 29.06 28.7 41.7 44.38 11.47 14.24 20.43 36.48 36.67 45.88 18.85 13.42 18.66-29.91 18.52-37.32-.42-21.55-3.2-41.13-12.88-60.64-4.02-8.12-8.53-15.56-13.56-23.08-5.08-7.33-13.62-15.02-16.78-23.28 10.24-3.71 27.15-13.53 35.54-4.83 9.99 10.37 19.74 20.97 29.41 31.65 17.64 19.5 32.84 46.77 55.26 61.12 29.35 18.78 33.37-26.5 27.95-45.29-5.01-24.5-21.2-50.56-40.54-66.46 8.03-5.12 25.73-5.24 34.91-4.55 9.25.69 14.66 2.76 21.66-4 13.07-15.04 27.55-28.8 41.36-43.14 28.14-29.24 55.68-59.46 85.13-87.38 28.77-26.3 33.34 45.69 35.07 61.47 3.53 32.27 8.1 64.45 11.79 96.71.95 8.37 1.29 16.75 1.43 25.17.14 8.38 4.93 7.67 11.9 11.02 12.95 6.21 25.57 14.39 36.2 24.08 4.8 4.37 10.12 9 13.83 14.37 4.07 5.9-4.55 11.33-8.45 15.71-9.74 10.92-18.86 22.43-26.75 34.77-4.54 7.11-20.89 30.89-4.27 34.17 12.26 2.41 27.75-5.13 38.48-10.21 6.91-3.27 13.88-6.5 20.34-10.63 5.32-3.15 13.33-11.71 16.72-4.26 2.87 6.3 5.12 13.13 7.05 19.78zm-135.87-24.04c1.17-7.17 6.12-11.06.33-18.42-4.48-5.69-11.71-6.47-18.33-5.18-6.69 2.76-6.99 11.41-9.17 17.19-2.64 7.02-7.56 13.14-12.66 18.52-10.77 11.33-26.71 21.36-42.54 23.02-7.33.77-18.13 1.69-23.61-4.43-4.29-4.43-11.61-7-17.54-4.38-13.95 6.16-8.71 22.57 1.52 28.81 31.43 19.16 68.44 5.43 94.85-15.65 11.86-9.47 24.62-24.04 27.15-39.48zm-345.91 179.28c.8-6.37 5.08-9.15 2.27-16.09-3.01-7.45-10.64-10.69-18.4-8.94 3.51-.79-3.21.48 0 0-8.37 1.25-9.53 12.67-11.95 19.07-2.72 7.18-7.62 13.2-13.02 18.63-10.39 10.45-28.33 21.89-43.51 22.02-8.17.08-18.05 1.24-23.84-5.9-3.56-4.48-11.5-6.13-16.48-2.55-12.75 9.13-6.71 23.6 4.89 30.14 30.97 15.24 66.2 5.9 91.71-16.3 11.23-9.77 26.37-24.55 28.33-40.08zm-193.63-133.24c2.45-8.13 8.52-18.78 7.78-27.46-23.02-1.07-45.87 3.62-68.89 2.6v.04c-.34 9.39 20.92 24.47 27.05 30.66 4.7 4.75 9.39 9.51 14.02 14.34 2.92 3.04 5.65 8.95 9.21 11.18 4.79-10.01 7.64-20.78 10.83-31.36z"/><path d="M763.021 573.904c5.79 7.36.84 11.25-.33 18.42-2.53 15.44-15.29 30.01-27.15 39.48-26.41 21.08-63.42 34.81-94.85 15.65-10.23-6.24-15.47-22.65-1.52-28.81 5.93-2.62 13.25-.05 17.54 4.38 5.48 6.12 16.28 5.2 23.61 4.43 15.83-1.66 31.77-11.69 42.54-23.02 5.1-5.38 10.02-11.5 12.66-18.52 2.18-5.78 2.48-14.43 9.17-17.19 6.62-1.29 13.85-.51 18.33 5.18zM748.071 433.144c.82 5.18 6.35 20.09-2.91 18.55-11.07-1.83-22.35-6.58-33.14-9.71-9.11-2.64-18.56-4.7-27.37-8.28-11.87-4.83 2.2-9.85 7.31-14.08 15.95-13.19 31.45-27.14 47.97-39.65l.74-.56c.03-.03.05-.05.08-.07 2.69-2.23 2.43 15.73 2.62 17.55 1.29 12.09 2.8 24.25 4.7 36.25z"/><path d="M735.091 383.564c.33-.32 6.1-4.73 5.66-4.22a.5.5 0 00-.08.07l-.74.56c-3.33 2.51-4.65 3.47-4.84 3.59z"/><path fill="#FFF" d="M575.371 1058.134c7.76 17.87 1.74 31.94-9.03 46.55-6.43 8.72-10.23 11.09-19.82 4.48-6.55-4.53-.86-14.56-3.45-21.52-13.65-22.8-20.94 17.64-26.47 19.92-6.47 3.2-17.64 11.96-24.53 5.74-5.96-5.38-5.64-10.59-5.34-17.98-.12-22.05-24.46-.91-30.23 5.89-10.74 12.64-21.98 23.13-37.53 10.65-6.17-4.95-11.87-12.9-14.66-20.36-3.21-6.5-8.84-2.26-13.8-.06-14.67 7.35-34.92 11.2-51 6.59-16.4-4.71-25.87-18.91-27.23-35.4-.93-11.41-.63-37.38 8.03-46.3 3.84-2.95 15.98 4.3 19.41 6.22 6.63 3.71 1.85 16.71 1.82 23.24-.05 7.99-1.5 19.69 10.35 16.36 8.04-2.26 14.59-8.84 21.38-13.4 9.73-6.52 11.4-8.69 23.09-6.69 7.99 1.51 15.92 3.36 23.89 4.96 17.45 3.51 35.32 4.58 53.09 5.14 19 .27 38.03.24 57-1.14 10.33-.75 20.64-1.91 30.87-3.63 8.91-1.51 10.72 2.82 14.16 10.74z"/><path d="M635.831 746.714c-5.44-1.96-19.86 12.62-24.27 15.88-21.33 13.89-43.74-8.15-54.89-24.39-5.5-8.02 5.11-20.54 8.51-28.08 6.07-11.2-15.71-8.32-20.61-6.98-.09.02-.17.05-.25.07-.19.05-.38.11-.58.16-15.71 4.61-63.69 25.73-25.21 36.61 8.33 2.36 16.02 2.57 24.61 2.65 2.99 5.09 5 10.69 6.54 16.37 1.17 4.32 2.11 9.17 2.51 14.12.58 7.32-.02 14.83-2.82 21.09-2.6 5.8-8.04 10.85-13.88 13.3-5.26 2.21-12.65-.78-16.27 3.96-9.21 12.06 6.79 13.46 15 11.31 12.98-3.4 21.96-10.91 27.95-22.7 4.38-8.01 1.67-18.02.97-27.17-.18-2.39-.23-4.73.03-6.95 6.02 1.15 11.71 7.59 17.24 10.33 5.34 2.25 11.19 3.17 16.97 2.91 11.94-.53 22.44-6.13 32.22-12.52 6-3.92 18.91-14.3 6.23-19.97z"/><path d="M545.251 702.924c-.1.04-.32.11-.68.22-.09.02-.17.05-.25.07-.19.05-.38.11-.58.16-2.39.67-3.45.97-3.71 1.03.54-.16 4.61-1.33 5.22-1.48zM419.051 755.514c2.81 6.94-1.47 9.72-2.27 16.09-1.96 15.53-17.1 30.31-28.33 40.08-25.51 22.2-60.74 31.54-91.71 16.3-11.6-6.54-17.64-21.01-4.89-30.14 4.98-3.58 12.92-1.93 16.48 2.55 5.79 7.14 15.67 5.98 23.84 5.9 15.18-.13 33.12-11.57 43.51-22.02 5.4-5.43 10.3-11.45 13.02-18.63 2.42-6.4 3.58-17.82 11.95-19.07 7.76-1.75 15.39 1.49 18.4 8.94z"/><path d="M400.651 746.574c-3.21.48 3.51-.79 0 0zM230.931 610.904c.74 8.68-5.33 19.33-7.78 27.46-3.19 10.58-6.04 21.35-10.83 31.36-3.56-2.23-6.29-8.14-9.21-11.18-4.63-4.83-9.32-9.59-14.02-14.34-6.13-6.19-27.39-21.27-27.05-30.66 0 3.96 22.95.98 0-.04 23.02 1.02 45.87-3.67 68.89-2.6z"/><path d="M162.041 613.504c22.95 1.02 0 4 0 .04v-.04z"/></svg>